<svg xmlns="http://www.w3.org/2000/svg" width="16" height="16" viewBox="0 0 16 16">
    <defs>
        <clipPath id="prefix__clip-path">
            <path id="prefix__Rectangle_49" d="M0 0H16V16H0z" class="prefix__cls-1" data-name="Rectangle 49" transform="translate(1050 63)"/>
        </clipPath>
        <style>
            .prefix__cls-1{fill:#7d7dcb}
        </style>
    </defs>
    <g id="prefix__Mask_Group_5" data-name="Mask Group 5" transform="translate(-1050 -63)">
        <g id="prefix__add_2_" data-name="add (2)" transform="translate(1050 63)">
            <path id="prefix__Path_1003" d="M8 0a8 8 0 1 0 8 8 8.009 8.009 0 0 0-8-8zm0 15a7 7 0 1 1 7-7 7.008 7.008 0 0 1-7 7z" class="prefix__cls-1" data-name="Path 1003"/>
            <path id="prefix__Path_1004" d="M10.5 6h-1v3.5H6v1h3.5V14h1v-3.5H14v-1h-3.5z" class="prefix__cls-1" data-name="Path 1004" transform="translate(-2 -2)"/>
        </g>
    </g>
</svg>
